<svg width="55" height="54" viewBox="0 0 55 54" fill="none" xmlns="http://www.w3.org/2000/svg">
<g clip-path="url(#clip0_46_20)">
<path d="M6.671 9.57605C6.55263 9.57605 6.44672 9.57605 6.35327 9.57725H27.7907C20.7508 9.57605 13.7109 9.57605 6.671 9.57605ZM6.671 9.57605C6.55263 9.57605 6.44672 9.57605 6.35327 9.57725H27.7907C20.7508 9.57605 13.7109 9.57605 6.671 9.57605Z" fill="white"/>
<path d="M54.2009 12.1056C54.2096 9.8224 52.4254 8.32258 50.291 8.39913C49.7826 8.41827 49.2742 8.40272 48.7223 8.40272C48.7223 7.53201 48.726 6.75818 48.721 5.98316C48.7098 4.22979 47.6432 2.93449 45.8328 2.61994C45.0291 2.48 44.1906 2.52904 43.2997 2.48957C43.2997 1.9394 43.3159 1.40597 43.2947 0.87374C43.276 0.384566 43.0629 0.0209741 42.4848 0.00303377C41.9714 -0.0125146 41.6724 0.316392 41.6612 0.910816C41.65 1.44066 41.6587 1.97169 41.6587 2.49196H37.2653C37.2653 1.93581 37.274 1.42032 37.2628 0.906033C37.2503 0.294864 36.9625 -0.0161022 36.4479 0.000642121C35.9483 0.0161904 35.6567 0.349881 35.6455 0.94311C35.6368 1.45381 35.6442 1.96571 35.6442 2.49196H31.2646C31.2646 1.95734 31.2683 1.46338 31.2633 0.968226C31.2571 0.297256 31.0016 -0.00414278 30.4547 0.00542542C29.9126 0.0149936 29.651 0.32596 29.6423 0.988558C29.636 1.49567 29.641 2.00398 29.641 2.49435H25.275C25.275 1.96212 25.28 1.46816 25.2738 0.974207C25.2663 0.321177 24.9884 -0.005338 24.4552 0.000642121C23.9219 0.00662225 23.6577 0.325961 23.6527 0.987363C23.6478 1.49567 23.6515 2.00279 23.6515 2.49435H19.2843C19.2843 1.92265 19.298 1.38803 19.2805 0.854604C19.2618 0.299648 18.9566 0.00183775 18.4532 0.00303377C17.9598 0.00303377 17.6757 0.304432 17.6632 0.87374C17.6508 1.40597 17.6607 1.9382 17.6607 2.53263H13.2835C13.2835 1.9382 13.2935 1.42272 13.281 0.907228C13.2661 0.32596 12.9484 -0.016103 12.4412 0.00542542C11.8656 0.0281499 11.6587 0.373802 11.66 0.883308C11.6625 1.41434 11.66 1.94657 11.66 2.53263H7.26908C7.26908 1.96451 7.2778 1.46816 7.26784 0.97301C7.25288 0.30802 6.97627 -0.00773045 6.44423 0.00303377C5.91842 0.013798 5.64181 0.339117 5.62685 0.994539C5.61564 1.48611 5.62436 1.97887 5.62436 2.53502C4.91663 2.53502 4.27744 2.51947 3.63948 2.53741C1.70943 2.59362 0.211736 4.03364 0.21049 5.87193C0.20426 18.8249 0.204261 31.779 0.211737 44.7332C0.212983 46.6396 1.7331 48.0713 3.72795 48.1C4.32603 48.1096 4.92536 48.1024 5.62561 48.1024C5.62561 48.9731 5.62062 49.7672 5.62561 50.5614C5.63433 51.761 6.13896 52.7178 7.17812 53.396C7.96933 53.9127 8.86147 53.9868 9.79348 53.9856C23.2889 53.9761 36.7831 53.9593 50.2785 54C52.5101 54.0072 54.2171 52.4571 54.2059 50.2492C54.1473 37.5355 54.1523 24.8206 54.2009 12.1056ZM1.89384 5.43299C1.93371 4.74049 2.77601 4.15563 3.6046 4.1054C4.24255 4.06713 4.88424 4.09822 5.61689 4.09822V5.83964H7.26036V4.11975H11.64V5.83724H13.2574V4.1341H17.637V5.82768H19.2718V4.12812H23.6415V5.83246H25.2476V4.12573H29.6198V5.83605H31.2309V4.14008H35.6131V5.81691H37.2516V4.12932H41.6437V5.82768H43.2847V4.04679C44.1532 4.09822 44.9656 4.06593 45.7418 4.21185C46.6277 4.37929 47.085 5.0371 47.0912 5.90781C47.1 7.10144 47.0937 8.29508 47.0937 9.55688H43.3209C43.3209 9.56406 43.3196 9.57004 43.3196 9.57722H3.85006V9.59635H1.87141C1.87141 8.16112 1.81658 6.79406 1.89384 5.43299ZM4.13539 46.5428C3.8675 46.5428 3.59089 46.5487 3.33297 46.4913C2.34489 46.2701 1.83527 45.6135 1.83527 44.5813C1.83278 33.6185 1.83403 22.6558 1.83403 11.693V11.1775H47.0476V37.1073H45.9549C44.3351 37.1085 42.7165 37.1025 41.0967 37.1109C38.758 37.1217 37.284 38.539 37.2815 40.7684C37.2802 42.6605 37.2815 44.5526 37.2815 46.5452H36.5912C25.7722 46.5452 14.9544 46.5452 4.13539 46.5428ZM45.9636 38.7196C44.6453 39.8091 43.6423 41.0064 42.4723 42.0565C41.2936 43.1126 40.1996 44.2536 38.9736 45.4508C38.9412 45.1889 38.9125 45.0681 38.9125 44.9473C38.9088 43.5144 38.8976 42.0804 38.91 40.6476C38.9187 39.5556 39.457 38.8105 40.5473 38.7471C42.2892 38.6454 44.0435 38.7196 45.9636 38.7196ZM52.555 29.0928C52.555 36.1493 52.555 43.2047 52.5537 50.2612C52.5537 51.7419 51.8572 52.4176 50.3234 52.4176C36.722 52.4176 23.1207 52.4176 9.5206 52.4164C7.94317 52.4164 7.25662 51.7503 7.24915 50.2277C7.24665 49.5352 7.24915 48.8439 7.24915 48.1024H8.13879C17.9809 48.1024 27.8243 48.0988 37.6665 48.1131C38.2098 48.1131 38.6035 47.966 38.9835 47.5989C42.0549 44.6279 45.1338 41.6666 48.2313 38.722C48.6076 38.3631 48.7285 37.996 48.7285 37.508C48.7173 28.5976 48.721 19.6884 48.721 10.778V9.99343C49.4848 9.99343 50.1726 9.92765 50.8417 10.0078C51.9756 10.1441 52.555 10.8617 52.555 11.9908V29.0928Z" fill="white"/>
<path d="M14.8722 30.6058V28.5881C16.9306 27.4949 18.4681 26.3539 19.4849 25.1651C20.5016 23.9762 21.01 22.7503 21.01 21.4897C21.01 20.7565 20.8218 20.2075 20.4468 19.8416C20.0717 19.4756 19.5023 19.2926 18.7385 19.2926C18.2314 19.2926 17.7031 19.4337 17.1524 19.716C16.6016 19.9982 16.1294 20.3738 15.7357 20.8426L14.4411 19.6083C14.8722 19.0139 15.4865 18.5367 16.2802 18.1755C17.0751 17.8155 17.9074 17.6349 18.7771 17.6349C20.1851 17.6349 21.238 17.9542 21.9358 18.5941C22.6335 19.234 22.9824 20.1992 22.9824 21.4909C22.9824 22.7886 22.555 24.0324 21.7015 25.2249C20.848 26.4173 19.5472 27.5631 17.8015 28.6622V30.6082H14.8722V30.6058ZM15.4354 30.6058V28.9301H23.5443V30.6058H15.4354Z" fill="white"/>
<path d="M30.4709 30.7863C29.0317 30.7863 27.9178 30.4574 27.1291 29.7996C26.3404 29.1417 25.9466 28.216 25.9466 27.02H27.9552C27.9552 27.6862 28.1745 28.2053 28.6118 28.5736C29.0492 28.9432 29.6759 29.1274 30.4883 29.1274C31.2895 29.1274 31.9087 28.8966 32.3461 28.4337C32.7834 27.9708 33.0027 27.3202 33.0027 26.4794C33.0027 25.6565 32.7647 25.019 32.29 24.5645C31.814 24.1113 31.1387 23.884 30.2628 23.884C29.3868 23.884 28.567 24.0826 27.8044 24.4784L27.9739 22.9475C28.4685 22.6772 28.9595 22.4954 29.4479 22.4021C29.9363 22.3088 30.4272 22.2622 30.9219 22.2622C32.2103 22.2622 33.2083 22.6282 33.916 23.3613C34.6225 24.0945 34.9764 25.1327 34.9764 26.4782C34.9764 27.3908 34.7995 28.1694 34.4456 28.8116C34.0917 29.4539 33.5809 29.9443 32.9105 30.2804C32.2402 30.6164 31.4278 30.7863 30.4709 30.7863ZM26.754 24.4796L26.9422 17.813H28.8747L28.6866 23.3625L27.8044 24.4796H26.754ZM27.843 19.4898L27.6736 17.8142H34.1304V19.4898H27.843Z" fill="white"/>
</g>
<defs>
<clipPath id="clip0_46_20">
<rect width="55" height="54" fill="white"/>
</clipPath>
</defs>
</svg>
