<svg width="30" height="30" viewBox="0 0 30 30" fill="none" xmlns="http://www.w3.org/2000/svg">
<path fill-rule="evenodd" clip-rule="evenodd" d="M15 0C23.2787 0 30 6.56511 30 14.6514C30 22.7378 23.2787 29.3029 15 29.3029C6.72129 29.3029 0 22.7378 0 14.6514C0 6.56511 6.72129 0 15 0ZM15 5.49429C12.4539 5.49429 12.1346 5.50483 11.1347 5.54941C10.1368 5.59388 9.45533 5.74869 8.85896 5.97504C8.2425 6.20907 7.71967 6.52219 7.19848 7.03127C6.67728 7.54035 6.35672 8.05103 6.11713 8.65317C5.88539 9.23565 5.72695 9.90131 5.68137 10.8759C5.63578 11.8527 5.625 12.1646 5.625 14.6514C5.625 17.1383 5.63578 17.4502 5.68137 18.427C5.72695 19.4016 5.88539 20.0673 6.11713 20.6497C6.35672 21.2519 6.67728 21.7625 7.19848 22.2717C7.71967 22.7808 8.2425 23.0939 8.85896 23.3279C9.45533 23.5542 10.1368 23.709 11.1347 23.7535C12.1346 23.7981 12.4539 23.8086 15 23.8086C17.5461 23.8086 17.8654 23.7981 18.8653 23.7535C19.8632 23.709 20.5447 23.5542 21.141 23.3279C21.7574 23.0939 22.2803 22.7808 22.8015 22.2717C23.3227 21.7625 23.6433 21.2519 23.8829 20.6497C24.1146 20.0673 24.273 19.4016 24.3186 18.427C24.3642 17.4502 24.375 17.1383 24.375 14.6514C24.375 12.1646 24.3642 11.8527 24.3186 10.8759C24.273 9.90131 24.1146 9.23565 23.8829 8.65317C23.6433 8.05103 23.3227 7.54035 22.8015 7.03127C22.2803 6.52219 21.7574 6.20907 21.141 5.97504C20.5447 5.74869 19.8632 5.59388 18.8653 5.54941C17.8654 5.50483 17.5461 5.49429 15 5.49429ZM15 7.14424C17.5032 7.14424 17.7997 7.15357 18.7883 7.19764C19.7024 7.23839 20.1987 7.38753 20.5291 7.51293C20.9667 7.67902 21.279 7.87751 21.607 8.19794C21.9352 8.51833 22.1383 8.82343 22.3083 9.25088C22.4367 9.57351 22.5895 10.0584 22.6311 10.9511C22.6763 11.9168 22.6858 12.2064 22.6858 14.6514C22.6858 17.0965 22.6763 17.3862 22.6311 18.3518C22.5895 19.2445 22.4367 19.7294 22.3083 20.052C22.1383 20.4796 21.9352 20.7846 21.607 21.105C21.279 21.4255 20.9667 21.6238 20.5291 21.79C20.1987 21.9154 19.7024 22.0646 18.7883 22.1053C17.7999 22.1493 17.5034 22.1586 15 22.1586C12.4966 22.1586 12.2002 22.1493 11.2117 22.1053C10.2976 22.0646 9.80127 21.9154 9.47092 21.79C9.03328 21.6238 8.72098 21.4255 8.39291 21.105C8.06484 20.7846 7.8617 20.4796 7.69166 20.052C7.56328 19.7294 7.41053 19.2445 7.36881 18.3518C7.32369 17.3862 7.3142 17.0965 7.3142 14.6514C7.3142 12.2064 7.32369 11.9168 7.36881 10.9511C7.41053 10.0584 7.56328 9.57351 7.69166 9.25088C7.8617 8.82343 8.06484 8.51833 8.39291 8.19794C8.72098 7.87751 9.03328 7.67902 9.47092 7.51293C9.80127 7.38753 10.2976 7.23839 11.2117 7.19764C12.2003 7.15357 12.4968 7.14424 15 7.14424ZM15 9.94917C12.3412 9.94917 10.1858 12.0544 10.1858 14.6514C10.1858 17.2485 12.3412 19.3537 15 19.3537C17.6588 19.3537 19.8142 17.2485 19.8142 14.6514C19.8142 12.0544 17.6588 9.94917 15 9.94917ZM15 17.7038C13.2741 17.7038 11.875 16.3372 11.875 14.6514C11.875 12.9657 13.2741 11.5991 15 11.5991C16.7259 11.5991 18.125 12.9657 18.125 14.6514C18.125 16.3372 16.7259 17.7038 15 17.7038ZM21.1294 9.76339C21.1294 10.3703 20.6257 10.8622 20.0044 10.8622C19.3831 10.8622 18.8794 10.3703 18.8794 9.76339C18.8794 9.15643 19.3831 8.6645 20.0044 8.6645C20.6257 8.6645 21.1294 9.15643 21.1294 9.76339Z" fill="white"/>
</svg>
