<svg width="30" height="30" viewBox="0 0 30 30" fill="none" xmlns="http://www.w3.org/2000/svg">
<path fill-rule="evenodd" clip-rule="evenodd" d="M15 29.4113C23.2843 29.4113 30 22.8274 30 14.7056C30 6.58394 23.2843 0 15 0C6.71573 0 0 6.58394 0 14.7056C0 22.8274 6.71573 29.4113 15 29.4113Z" fill="white"/>
<path fill-rule="evenodd" clip-rule="evenodd" d="M10.8897 21.1186V12.1488H8.06185V21.1186H10.8897ZM10.8897 8.9693C10.8729 8.16659 10.3272 7.55542 9.44069 7.55542C8.55398 7.55542 7.97461 8.16659 7.97461 8.9693C7.97461 9.75462 8.53714 10.3835 9.40678 10.3835H9.42362C10.3272 10.3835 10.8897 9.75462 10.8897 8.9693ZM15.5032 21.1186V16.008C15.5032 15.7345 15.5234 15.461 15.6054 15.266C15.8297 14.7192 16.3402 14.1533 17.1973 14.1533C18.3201 14.1533 19.0243 14.778 19.0243 16.008V21.1186H21.8713V15.8712C21.8713 13.0603 20.3407 11.7523 18.2991 11.7523C16.6252 11.7523 15.8905 12.6698 15.4825 13.2943L15.5029 12.0946H12.6609C12.7018 12.9533 12.6609 21.1186 12.6609 21.1186H15.5032Z" fill="#01015E"/>
</svg>
