<svg width="24" height="24" viewBox="0 0 24 24" fill="none" xmlns="http://www.w3.org/2000/svg">
<path d="M22 8.62V18C22 18.5304 21.7893 19.0391 21.4142 19.4142C21.0391 19.7893 20.5304 20 20 20H4C3.46957 20 2.96086 19.7893 2.58579 19.4142C2.21071 19.0391 2 18.5304 2 18V8.62L11.55 13.39C11.6896 13.4603 11.8437 13.497 12 13.497C12.1563 13.497 12.3104 13.4603 12.45 13.39L22 8.62Z" fill="black"/>
<path d="M12 11.38L2 6.38V6C2 4.9 2.9 4 4 4H20C20.5304 4 21.0391 4.21071 21.4142 4.58579C21.7893 4.96086 22 5.46957 22 6V6.38L12 11.38Z" fill="black"/>
</svg>
