<svg width="24" height="24" viewBox="0 0 24 24" fill="none" xmlns="http://www.w3.org/2000/svg">
<path d="M3.99994 1.94031H7.99994C8.23047 1.94026 8.45394 2.01986 8.63252 2.16565C8.8111 2.31143 8.93383 2.51443 8.97994 2.74031L9.97994 7.74031C10.0121 7.90096 10.0043 8.06706 9.95723 8.22399C9.91015 8.38093 9.82523 8.52389 9.70994 8.64031L7.18994 11.1603C8.37164 13.5992 10.341 15.5686 12.7799 16.7503L15.2899 14.2303C15.4064 14.115 15.5493 14.0301 15.7063 13.983C15.8632 13.9359 16.0293 13.9281 16.1899 13.9603L21.1899 14.9603C21.6599 15.0603 21.9999 15.4603 21.9999 15.9403V19.9403C21.9999 20.4707 21.7892 20.9794 21.4142 21.3545C21.0391 21.7296 20.5304 21.9403 19.9999 21.9403H17.9999C13.7565 21.9403 9.68681 20.2546 6.68623 17.254C3.68565 14.2534 1.99994 10.1838 1.99994 5.94031V3.94031C1.99994 2.84031 2.89994 1.94031 3.99994 1.94031Z" fill="black"/>
<path d="M21.9999 9.94031C21.9999 10.2055 21.8946 10.4599 21.707 10.6474C21.5195 10.835 21.2652 10.9403 20.9999 10.9403C20.7347 10.9403 20.4804 10.835 20.2928 10.6474C20.1053 10.4599 19.9999 10.2055 19.9999 9.94031C19.9999 8.34901 19.3678 6.82289 18.2426 5.69767C17.1174 4.57245 15.5912 3.94031 13.9999 3.94031C13.7347 3.94031 13.4804 3.83495 13.2928 3.64741C13.1053 3.45988 12.9999 3.20552 12.9999 2.94031C12.9999 2.67509 13.1053 2.42074 13.2928 2.2332C13.4804 2.04566 13.7347 1.94031 13.9999 1.94031C16.1217 1.94031 18.1565 2.78316 19.6568 4.28345C21.1571 5.78374 21.9999 7.81858 21.9999 9.94031ZM17.9999 9.94031C17.9999 10.2055 17.8946 10.4599 17.707 10.6474C17.5195 10.835 17.2652 10.9403 16.9999 10.9403C16.7347 10.9403 16.4804 10.835 16.2928 10.6474C16.1053 10.4599 15.9999 10.2055 15.9999 9.94031C15.9999 9.40987 15.7892 8.90117 15.4142 8.52609C15.0391 8.15102 14.5304 7.94031 13.9999 7.94031C13.7347 7.94031 13.4804 7.83495 13.2928 7.64741C13.1053 7.45988 12.9999 7.20552 12.9999 6.94031C12.9999 6.67509 13.1053 6.42074 13.2928 6.2332C13.4804 6.04566 13.7347 5.94031 13.9999 5.94031C15.0608 5.94031 16.0782 6.36173 16.8284 7.11188C17.5785 7.86203 17.9999 8.87944 17.9999 9.94031Z" fill="black"/>
</svg>
