<svg width="30" height="30" viewBox="0 0 30 30" fill="none" xmlns="http://www.w3.org/2000/svg">
<path d="M15 0C6.71572 0 0 6.55968 0 14.6514C0 22.7432 6.71572 29.3029 15 29.3029C23.2843 29.3029 30 22.7432 30 14.6514C30 6.55968 23.2843 0 15 0ZM22.5949 13.2998C21.0021 13.2998 19.4523 12.7949 18.259 11.9405L18.2495 17.7495C18.2485 18.8259 17.9115 19.8764 17.2833 20.7609C16.6552 21.6453 15.7659 22.3215 14.734 22.6995C13.7022 23.0774 12.5769 23.1389 11.5083 22.8759C10.4397 22.6129 9.47864 22.0378 8.75337 21.2274C8.02809 20.417 7.5731 19.4098 7.4491 18.3403C7.32509 17.2707 7.53799 16.1896 8.05936 15.2413C8.58073 14.293 9.38579 13.5226 10.3671 13.0328C11.3484 12.543 12.4593 12.3572 13.5516 12.5002V15.3529C13.0363 15.2043 12.4863 15.2177 11.9794 15.3916C11.4724 15.5655 11.0345 15.8908 10.7275 16.3215C10.4205 16.7521 10.2602 17.2662 10.2691 17.7909C10.2781 18.3156 10.456 18.8242 10.7776 19.2446C11.0992 19.6649 11.5481 19.9758 12.0607 20.133C12.5732 20.2902 13.1235 20.2857 13.6333 20.1202C14.1432 19.9548 14.5867 19.6368 14.9011 19.2112C15.2155 18.7858 15.3847 18.2743 15.3848 17.7495V6.25737H18.3892C18.3892 6.79681 18.498 7.33097 18.7094 7.82934C18.9207 8.32773 19.2305 8.78055 19.621 9.162C20.0115 9.54342 20.4751 9.84603 20.9854 10.0524C21.4956 10.2589 22.0425 10.3651 22.5947 10.3651L22.5949 13.2998Z" fill="white"/>
</svg>
